<svg version="1.1" id="Layer_1" xmlns="http://www.w3.org/2000/svg" xmlns:xlink="http://www.w3.org/1999/xlink" x="0px" y="0px"
	 width="100%" viewBox="0 0 1024 1024"  xml:space="preserve">

<path fill="#2a8a01ff" opacity="1.000000" stroke="none" 
	d="
M638.463379,721.025635 
	C638.336121,720.891602 638.208801,720.757568 637.936829,720.068665 
	C637.488281,719.011780 637.184387,718.509705 636.880493,718.007629 
	C636.880493,718.007629 636.977783,718.003906 636.796570,717.858337 
	C636.352051,717.475586 636.088806,717.238342 635.825562,717.001099 
	C635.825562,717.001099 635.962524,717.125977 635.876282,716.847412 
	C635.077454,715.758118 634.364929,714.947327 633.652344,714.136597 
	C633.652344,714.136597 633.799683,713.951233 633.709106,713.837158 
	C633.370178,713.481567 633.121948,713.239990 632.873657,712.998413 
	C632.873657,712.998413 632.994507,713.152710 632.871948,712.899658 
	C632.414429,712.124084 632.079468,711.601562 631.744507,711.078979 
	C631.744507,711.078979 631.885803,711.003479 631.735107,710.890442 
	C631.347107,710.526245 631.109802,710.275024 630.872498,710.023804 
	C630.872498,710.023804 630.968262,710.013672 630.789551,709.868774 
	C630.349854,709.486938 630.088989,709.250122 629.828064,709.013245 
	C629.828064,709.013245 629.947388,708.967407 629.790161,708.833374 
	C629.372681,708.461121 629.112305,708.222900 628.851990,707.984741 
	C628.851990,707.984741 628.980957,708.045410 628.888916,707.805298 
	C628.471558,707.052307 628.146301,706.539429 627.821045,706.026611 
	C627.821045,706.026611 627.941101,705.988953 627.777161,705.862671 
	C627.370728,705.492798 627.128235,705.249207 626.885742,705.005676 
	C626.885742,705.005676 626.981018,704.993652 626.810364,704.852051 
	C626.390076,704.473511 626.140503,704.236572 625.890869,703.999634 
	C625.890869,703.999634 625.950134,704.076172 625.883789,703.771973 
	C625.107910,702.674500 624.398315,701.881226 623.688782,701.087891 
	C623.688782,701.087891 623.841064,700.936584 623.734741,700.820740 
	C623.369568,700.466858 623.110718,700.228821 622.851807,699.990784 
	C622.851807,699.990784 622.970398,699.956055 622.820679,699.830688 
	C622.445068,699.459473 622.201538,699.232666 621.940369,699.024841 
	C621.940369,699.024841 621.998169,699.008118 621.905701,698.746826 
	C621.508545,697.990906 621.203796,697.496277 620.899048,697.001648 
	C620.899048,697.001648 620.986023,697.214417 620.871155,696.909851 
	C620.050232,695.807739 619.344238,695.010193 618.638184,694.212646 
	C618.638184,694.212646 618.759216,694.007141 618.684204,693.872559 
	C618.357117,693.497681 618.105164,693.257507 617.853149,693.017273 
	C617.853149,693.017273 617.955872,693.240479 617.845886,692.939575 
	C617.021057,691.844604 616.306213,691.050476 615.591309,690.256348 
	C615.591309,690.256348 615.712158,690.084778 615.658447,689.872925 
	C614.993652,689.130432 614.382568,688.599731 613.771484,688.069031 
	C613.771484,688.069031 613.871887,688.094238 613.815674,687.838135 
	C613.427551,687.075134 613.095642,686.568298 612.763733,686.061401 
	C612.763733,686.061401 612.899292,685.997070 612.749756,685.870605 
	C612.344482,685.503357 612.088806,685.262512 611.833130,685.021667 
	C611.833130,685.021667 611.946472,684.978149 611.783203,684.843750 
	C611.360596,684.469421 611.101135,684.229492 610.841675,683.989563 
	C610.841675,683.989563 610.964172,684.101990 610.909790,683.970337 
	C610.564758,683.596863 610.274109,683.355042 609.983459,683.113220 
	C596.557861,665.507751 583.021362,647.985596 569.727173,630.281433 
	C527.522217,574.076172 485.407654,517.803101 443.096649,461.340637 
	C461.073639,438.099487 479.190521,414.677490 497.901306,390.996399 
	C498.885468,390.025208 499.275696,389.313110 499.665894,388.601044 
	C499.665894,388.601044 499.774384,388.729553 500.044495,388.662354 
	C501.502106,386.663452 502.689636,384.731720 503.877136,382.799988 
	C503.877167,382.800018 503.952026,382.930176 504.088745,382.792358 
	C504.478912,382.405426 504.732391,382.156342 504.985901,381.907288 
	C504.985870,381.907257 504.985992,381.991547 505.108948,381.799561 
	C505.476288,381.363739 505.720642,381.119873 505.965027,380.876038 
	C505.965027,380.876038 505.729950,380.993469 505.993774,380.754822 
	C506.717438,379.551300 507.177307,378.586456 507.637146,377.621582 
	C507.637146,377.621582 507.925079,377.699280 508.074371,377.602936 
	C508.449677,376.938568 508.675690,376.370575 508.901703,375.802551 
	C508.901703,375.802551 508.984711,375.933411 509.112061,375.795044 
	C509.488403,375.407135 509.737366,375.157593 509.986328,374.908020 
	C509.986359,374.908051 509.822815,375.045349 510.081665,374.832214 
	C512.176025,371.708527 514.011536,368.797943 515.869873,365.919861 
	C515.892578,365.952332 515.825500,365.994598 516.026001,365.805878 
	C516.478027,365.356110 516.729553,365.095093 516.895630,364.941650 
	C516.810120,365.049194 516.594666,364.878723 516.919067,364.736694 
	C517.771912,363.635590 518.300476,362.676514 518.849854,361.805176 
	C518.870667,361.892883 518.694458,361.931091 519.023865,361.792236 
	C520.834045,359.332397 522.314819,357.011444 523.863098,354.781921 
	C523.930603,354.873352 523.746643,355.006836 523.958923,354.785889 
	C524.441406,354.022400 524.711670,353.479889 524.993896,352.964050 
	C525.005981,352.990753 524.947693,352.984772 525.284424,352.875305 
	C527.838074,351.711975 530.055054,350.658142 532.218262,349.646423 
	C532.164429,349.688538 532.085815,349.576630 532.336914,349.827271 
	C533.470459,350.315796 534.352905,350.553680 535.155945,350.817474 
	C535.076477,350.843353 535.028320,350.683350 535.249146,350.968994 
	C539.735535,352.764771 544.001160,354.274933 548.193604,355.791504 
	C548.120483,355.797974 548.112488,355.651306 548.264282,355.983704 
	C553.397949,358.012146 558.379944,359.708221 563.384521,361.599487 
	C563.407166,361.794708 563.017212,361.843994 563.301025,362.022949 
	C564.425476,362.449646 565.266174,362.697357 566.059998,362.969910 
	C566.013184,362.994751 565.963745,362.901031 566.246582,363.111023 
	C567.443115,363.467560 568.356750,363.614136 569.170715,363.764862 
	C569.071045,363.769043 569.067322,363.569580 569.248413,363.826294 
	C569.946899,364.391113 570.464233,364.699219 571.244385,365.258636 
	C573.417908,365.940918 575.328613,366.371887 577.186646,366.787537 
	C577.133972,366.772186 577.169189,366.668365 577.271362,367.030334 
	C579.000000,367.842560 580.626343,368.292755 582.244629,368.694611 
	C582.236450,368.646240 582.327942,368.610840 582.451538,368.945801 
	C585.097229,370.158936 587.619263,371.037079 590.141357,371.915222 
	C590.141357,371.915222 590.048767,371.926514 590.215088,372.190521 
	C591.650146,372.880646 592.918884,373.306763 594.187622,373.732849 
	C594.187622,373.732849 594.136963,373.814911 594.330811,374.051758 
	C599.736084,376.123993 604.947449,377.959381 610.158875,379.794739 
	C610.158875,379.794769 610.076660,379.817108 610.301758,380.043884 
	C620.351685,383.850281 630.176575,387.429901 640.267700,391.002014 
	C640.711243,390.984528 640.888550,390.974518 641.065918,390.964508 
	C641.065918,390.964508 640.997864,390.980377 641.249146,391.160400 
	C642.350891,391.542145 643.201416,391.743805 644.051941,391.945496 
	C644.051941,391.945496 643.992249,391.983795 644.252563,392.214752 
	C653.705627,395.599060 662.898376,398.752380 672.091187,401.905701 
	C672.091187,401.905701 672.008057,401.898956 672.210938,402.198456 
	C675.669434,403.590637 678.925110,404.683289 682.180725,405.775940 
	C682.180725,405.775940 682.089905,405.816437 682.297974,406.046326 
	C691.493774,409.731354 700.431458,413.325043 709.485168,416.597534 
	C716.646484,419.186035 723.950378,421.380127 731.190918,423.749390 
	C731.190918,423.749390 731.113464,423.798676 731.317383,424.032928 
	C736.750000,426.096008 741.978638,427.924835 747.207336,429.753693 
	C747.207336,429.753693 747.112305,429.809296 747.309570,430.039429 
	C751.092346,431.436890 754.677795,432.604218 758.191284,433.800659 
	C758.119263,433.829803 758.065125,433.684204 758.265747,433.925232 
	C759.018982,434.425781 759.571594,434.685333 760.068604,434.970367 
	C760.013123,434.995819 759.962463,434.884674 760.207703,435.060913 
	C761.025879,435.395966 761.598877,435.554779 762.099731,435.541321 
	C762.027710,435.368988 762.370544,435.220703 762.548462,435.556976 
	C763.881714,436.217682 765.037109,436.542114 766.123779,436.873596 
	C766.055054,436.880676 766.043579,436.743011 766.227905,437.072021 
	C768.040527,437.856201 769.668701,438.311310 771.198181,438.804138 
	C771.099426,438.841797 771.027771,438.642914 771.253906,438.941925 
	C773.087769,439.733154 774.695496,440.225403 776.219727,440.762268 
	C776.136169,440.806854 776.051270,440.637512 776.271118,440.934143 
	C779.085632,442.077606 781.680237,442.924469 784.194885,443.771820 
	C784.114929,443.772308 784.119080,443.612457 784.276611,443.951721 
	C787.046021,445.117340 789.657898,445.943726 792.182129,446.801422 
	C792.094482,446.832733 792.035645,446.656158 792.252075,446.947327 
	C796.377136,448.678284 800.285767,450.118042 804.168457,451.433838 
	C804.142517,451.309814 804.389404,451.252716 804.516968,451.610321 
	C808.184387,453.249847 811.724121,454.531799 815.168945,455.853699 
	C815.074036,455.893646 814.996643,455.702728 815.233948,455.930115 
	C816.077148,456.366882 816.683105,456.576233 817.191772,456.759766 
	C817.094604,456.733887 817.150635,456.540649 817.297119,456.892242 
	C819.454102,457.930664 821.464600,458.617462 823.432983,459.395599 
	C823.390869,459.486908 823.211609,459.395782 823.426025,459.685181 
	C824.501221,460.264984 825.362000,460.555420 826.148010,460.897125 
	C826.073303,460.948395 825.971863,460.798218 826.214844,461.004791 
	C827.048828,461.431091 827.639893,461.650848 828.161133,461.885864 
	C828.091248,461.901154 828.063477,461.760864 828.199524,462.073120 
	C830.988525,464.722565 832.289429,467.241089 829.808472,470.574768 
	C829.299805,471.258270 829.421997,472.411285 829.242188,473.254211 
	C829.231018,473.160522 829.419006,473.144135 829.071899,473.270752 
	C827.868530,475.002747 827.012207,476.608124 826.120850,478.143372 
	C826.085754,478.073242 826.226990,478.005127 826.028442,478.198975 
	C825.562073,478.640503 825.294312,478.888153 825.178101,479.038513 
	C825.329651,478.941223 825.526428,479.242859 825.180786,479.360962 
	C824.361877,480.472321 823.888733,481.465576 823.375549,482.376740 
	C823.335510,482.294647 823.503418,482.222656 823.165649,482.341553 
	C822.344482,483.438232 821.861023,484.415985 821.371948,485.315674 
	C821.366272,485.237549 821.522888,485.235413 821.172363,485.347473 
	C819.582336,487.697632 818.342834,489.935730 817.052246,492.124329 
	C817.001160,492.074768 817.100525,491.972900 816.930603,492.181519 
	C816.520569,492.652588 816.280457,492.915039 816.083374,493.073608 
	C816.126465,492.969757 816.334045,493.056335 816.111938,493.294006 
	C815.657776,494.124207 815.425659,494.716705 815.168823,495.216125 
	C815.144104,495.123016 815.331299,495.077545 815.014038,495.233704 
	C814.245239,496.392242 813.793762,497.394653 813.251221,498.311005 
	C813.160278,498.224976 813.334778,498.045349 813.140869,498.250916 
	C812.647278,498.690247 812.347534,498.924042 812.298584,499.070557 
	C812.609192,499.149933 812.669006,499.316528 812.370911,499.585968 
	C811.136902,501.591309 810.260803,503.493744 809.316467,505.316376 
	C809.248230,505.236572 809.411560,505.104584 809.111877,505.318481 
	C808.272339,507.106964 807.732483,508.681488 807.145020,510.162476 
	C807.097412,510.068970 807.285522,509.975952 807.047485,510.244751 
	C806.606995,511.422577 806.404480,512.331604 806.198730,513.133423 
	C806.195496,513.026123 806.410156,513.022949 806.119995,513.283508 
	C805.290588,516.109253 804.751404,518.674500 804.209473,521.142090 
	C804.206726,521.044495 804.401978,521.042847 804.101501,521.256836 
	C803.317688,522.783142 802.834351,524.095520 802.253784,525.319336 
	C802.156555,525.230835 802.335938,525.038574 802.113403,525.268677 
	C801.631775,526.072266 801.372620,526.645691 801.057617,527.156128 
	C801.001770,527.093018 801.128174,526.981628 800.953857,527.190796 
	C800.535156,527.668030 800.290649,527.936096 800.078979,528.099670 
	C800.111877,527.995239 800.320435,528.061951 800.097046,528.282593 
	C799.608337,529.055359 799.343079,529.607544 799.046631,530.099731 
	C799.015564,530.039673 799.135803,529.977966 798.941772,530.172241 
	C798.498535,530.629944 798.249268,530.893311 798.009888,531.064575 
	C798.019775,530.972412 798.204041,530.991760 798.008911,531.196411 
	C797.548706,531.665710 797.283630,531.930359 797.141113,532.133057 
	C797.263611,532.071045 797.398987,532.309937 797.068542,532.403198 
	C795.847229,533.717163 794.956360,534.937927 794.034607,536.374573 
	C794.003723,536.590454 793.903625,537.014954 793.903625,537.014954 
	C793.903625,537.014954 793.988342,536.991272 793.799988,537.002319 
	C793.611633,537.013306 793.246704,537.060730 793.026794,537.228210 
	C792.531860,537.635742 792.256836,537.875732 792.021179,538.020813 
	C792.060547,537.925842 792.250854,538.003601 792.034180,538.208130 
	C791.554199,538.710144 791.290833,539.007629 790.981812,539.193359 
	C790.936279,539.081726 791.159424,538.990112 790.970825,539.192627 
	C790.521423,539.654297 790.260620,539.913513 790.004761,540.081299 
	C790.009583,539.989868 790.192444,539.999268 789.997314,540.200806 
	C789.535522,540.662781 789.268921,540.923157 788.999390,541.093750 
	C788.996460,541.003906 789.176086,540.998474 788.987976,541.206726 
	C788.537598,541.681641 788.275330,541.948303 788.012695,542.112061 
	C788.012268,542.009216 788.218018,542.008850 788.025391,542.214233 
	C787.561157,542.675537 787.289429,542.931396 787.015503,543.102295 
	C787.013245,543.017334 787.183105,543.013245 787.000977,543.228455 
	C786.559753,543.718079 786.300537,543.992493 786.114502,544.142883 
	C786.187683,544.018860 786.435059,544.166504 786.101196,544.283752 
	C784.980652,545.453613 784.193970,546.506287 783.382385,547.467102 
	C783.357483,547.375244 783.543640,547.335815 783.205383,547.420166 
	C782.266479,548.383484 781.665771,549.262390 781.047485,550.083984 
	C781.029907,550.026611 781.144836,549.992126 780.941956,550.185303 
	C780.494019,550.660400 780.248962,550.942322 779.982056,551.123901 
	C779.960327,551.023621 780.160828,550.979614 779.963623,551.178955 
	C779.511230,551.649475 779.256104,551.920654 779.002625,552.090881 
	C779.004333,551.989868 779.206421,551.992859 779.010254,552.198059 
	C778.547913,552.669373 778.281799,552.935425 778.096802,553.083862 
	C778.178040,552.966248 778.413452,553.128418 778.091614,553.260132 
	C777.191711,554.301697 776.613647,555.211609 776.011841,556.340576 
	C775.988098,556.559570 775.903748,556.991943 775.903748,556.991943 
	C775.903748,556.991943 775.973511,556.975281 775.792236,556.998413 
	C775.610901,557.021545 775.250427,557.070312 774.925781,557.168945 
	C774.202148,558.010132 773.803223,558.752686 773.367310,559.400208 
	C773.330261,559.305237 773.523315,559.239624 773.185974,559.353027 
	C772.297913,560.409424 771.747192,561.352478 771.092163,562.246277 
	C770.987915,562.197083 771.084900,561.987915 770.890625,562.242554 
	C770.465881,562.856873 770.235413,563.216492 770.046021,563.792847 
	C769.976807,564.282288 769.892517,564.562683 769.834229,564.850952 
	C769.834229,564.850952 769.905701,564.930664 769.626404,565.059937 
	C768.483215,566.417664 767.619324,567.646179 766.755432,568.874695 
	C766.755432,568.874695 766.869141,568.883667 766.597046,569.001648 
	C765.780396,570.033020 765.235718,570.946411 764.691040,571.859802 
	C764.691040,571.859802 764.818787,572.016357 764.573242,571.932373 
	C764.168518,572.230164 764.009338,572.611816 763.850159,572.993530 
	C763.850159,572.993530 763.962097,573.024658 763.680359,573.001465 
	C763.219971,573.324829 763.041260,573.671509 762.862549,574.018188 
	C762.862610,574.018188 762.978394,573.935852 762.666016,574.055298 
	C761.503845,575.405762 760.653931,576.636780 759.804077,577.867859 
	C759.804077,577.867859 759.875610,577.877869 759.603882,578.029297 
	C759.172241,578.780334 759.012268,579.380005 758.852295,579.979736 
	C758.852356,579.979736 758.963562,579.986267 758.631592,579.886353 
	C758.161682,580.187988 758.023865,580.589478 757.886047,580.990967 
	C757.886047,580.990967 757.997192,580.747620 757.614502,580.852722 
	C756.787476,581.624451 756.343140,582.291077 755.898804,582.957764 
	C755.898865,582.957764 755.967346,582.960266 755.696960,583.108765 
	C755.244873,583.834106 755.063171,584.411072 754.881470,584.987976 
	C754.881470,584.987976 754.965576,584.708557 754.563110,584.822388 
	C753.705322,585.595032 753.250000,586.253845 752.794678,586.912598 
	C752.794678,586.912598 752.895752,587.023315 752.681519,587.038086 
	C752.283997,587.367554 752.100586,587.682373 751.917236,587.997192 
	C751.917236,587.997192 751.985474,587.984924 751.713013,588.129822 
	C751.254578,588.845886 751.068665,589.416992 750.882690,589.988098 
	C750.882629,589.988098 750.977783,589.987549 750.657532,589.926086 
	C750.188232,590.242065 750.039185,590.619568 749.890137,590.997009 
	C749.890137,590.997009 749.984802,591.007751 749.691528,590.986572 
	C749.234863,591.313538 749.071472,591.661682 748.908020,592.009827 
	C748.908020,592.009827 749.009644,591.901733 748.673706,592.029419 
	C748.176758,592.764587 748.015747,593.372070 747.854797,593.979553 
	C747.854797,593.979553 747.962769,593.987854 747.625366,593.894165 
	C747.158936,594.197571 747.029907,594.594666 746.900879,594.991821 
	C746.900879,594.991821 746.985352,594.719360 746.583984,594.847839 
	C745.440796,595.975464 744.698975,596.974670 743.957153,597.973816 
	C743.957153,597.973816 744.004639,597.993286 743.725586,598.153259 
	C742.567688,599.511169 741.688782,600.709045 740.809814,601.906982 
	C740.809875,601.906982 740.907410,602.010315 740.693481,602.035645 
	C740.292053,602.371399 740.104553,602.681885 739.916992,602.992371 
	C739.917053,602.992371 739.984497,602.983582 739.715759,603.132263 
	C739.263306,603.853027 739.079651,604.425049 738.895996,604.997131 
	C738.895996,604.997131 738.999817,604.718933 738.595581,604.824219 
	C737.722717,605.588440 737.254150,606.247437 736.785583,606.906372 
	C736.785583,606.906372 736.886475,606.896301 736.610840,607.004395 
	C735.730347,607.954224 735.125549,608.795898 734.520752,609.637573 
	C734.520752,609.637573 734.624634,609.989197 734.472229,609.913574 
	C734.181580,610.222473 734.043335,610.607056 733.905151,610.991638 
	C733.905151,610.991638 733.973755,610.725342 733.571838,610.874146 
	C732.022705,612.345947 730.875488,613.668945 729.422241,615.099976 
	C728.454651,616.216858 727.793152,617.225830 727.079163,618.158936 
	C727.026672,618.083130 727.178833,617.978882 726.985596,618.179749 
	C726.534424,618.642578 726.276489,618.904541 726.121826,619.058655 
	C726.225037,618.950806 726.441345,619.156555 726.092651,619.275269 
	C724.970825,620.745361 724.197754,622.096741 723.375000,623.374207 
	C723.325256,623.300293 723.477539,623.207764 723.135071,623.329834 
	C721.940063,625.060669 721.087463,626.669556 720.222900,628.222290 
	C720.210938,628.166138 720.324280,628.147827 719.980530,628.274536 
	C718.842529,630.048340 718.048279,631.695557 717.159790,633.260681 
	C717.065491,633.178650 717.230469,632.990906 717.023682,633.235046 
	C716.594421,634.073120 716.371948,634.667114 716.110779,635.162354 
	C716.072083,635.063599 716.270203,634.988037 716.048950,635.223206 
	C715.584961,636.044250 715.342224,636.630127 715.067932,637.129700 
	C715.036377,637.043396 715.209412,636.981201 715.018555,637.180908 
	C714.562805,637.634338 714.297974,637.888062 714.152710,638.024841 
	C714.272278,637.907898 714.507629,638.145569 714.239868,638.380188 
	C713.704529,639.487793 713.436951,640.360718 713.135925,641.148560 
	C713.102478,641.063354 713.273804,640.998901 713.075684,641.198486 
	C712.600830,641.653320 712.324097,641.908569 712.308655,642.065552 
	C712.637146,642.140808 712.704407,642.314270 712.410767,642.598755 
	C711.099548,645.227966 710.149231,647.746216 709.188477,650.180542 
	C709.177979,650.096741 709.346130,650.080078 709.010254,650.252075 
	C708.181946,652.027039 707.689575,653.629944 707.221313,655.177002 
	C707.245544,655.121216 707.355469,655.173401 706.980347,655.294189 
	C706.086548,657.067139 705.267944,658.691284 705.110779,660.377136 
	C704.771851,664.013550 704.905273,667.692322 704.610901,671.334778 
	C703.461426,685.559692 702.220581,699.777283 701.002319,714.440796 
	C700.661438,721.590210 700.331970,728.296326 700.008301,735.271851 
	C700.026550,735.720459 700.039001,735.899658 700.031128,736.041565 
	C700.010742,736.004272 700.085449,735.963928 699.875488,736.323853 
	C698.529297,749.529968 697.393005,762.376099 696.256775,775.222229 
	C696.256775,775.222229 696.075317,775.194641 695.918518,775.294922 
	C695.518311,775.638489 695.274902,775.881714 695.031494,776.125000 
	C695.031494,776.125000 695.195129,776.023132 694.935425,776.217773 
	C693.856262,777.393005 693.036804,778.373596 692.217346,779.354126 
	C692.217346,779.354126 692.006165,779.239319 691.872986,779.315063 
	C691.497070,779.637878 691.254333,779.885010 691.011536,780.132080 
	C691.011536,780.132080 691.180481,780.032471 690.837036,780.124817 
	C688.240356,780.204895 685.987183,780.192566 683.734009,780.180298 
	C683.734009,780.180237 683.839539,780.153870 683.717590,779.921265 
	C682.960449,779.159546 682.325317,778.630432 681.690125,778.101379 
	C681.690125,778.101379 681.835327,777.944885 681.733032,777.829956 
	C681.385315,777.474182 681.139893,777.233337 680.894470,776.992493 
	C680.894470,776.992493 681.002319,777.126953 680.906372,776.838257 
	C680.088745,775.763062 679.367188,774.976624 678.645569,774.190125 
	C678.645569,774.190125 678.773926,774.063843 678.699097,773.852661 
	C678.007874,773.107788 677.391541,772.573975 676.775208,772.040222 
	C676.775208,772.040222 676.906677,771.946228 676.786438,771.821411 
	C676.414062,771.471436 676.161987,771.246338 675.909851,771.021179 
	C675.909851,771.021179 675.976379,771.027344 675.904785,770.736084 
	C675.149109,769.688049 674.465149,768.931274 673.781189,768.174500 
	C673.454712,768.096619 673.219666,767.906006 672.946533,767.077148 
	C672.503845,766.035583 672.190491,765.519592 671.877136,765.003662 
	C671.877136,765.003662 671.986694,765.258423 671.825073,764.982666 
	C671.063904,764.159302 670.464478,763.611755 669.864990,763.064209 
	C669.864990,763.064209 669.938965,763.064514 669.887817,762.764893 
	C668.843750,761.316101 667.850952,760.166992 666.858154,759.017822 
	C666.858154,759.017822 666.958923,759.034180 666.884277,758.784790 
	C666.492859,758.026917 666.176025,757.518433 665.859253,757.009949 
	C665.859253,757.009949 665.956970,757.266724 665.837036,756.954346 
	C664.398621,755.116516 663.080261,753.591064 661.761902,752.065613 
	C661.761902,752.065613 661.878967,752.088745 661.822266,751.839661 
	C661.441772,751.075500 661.117920,750.560425 660.794128,750.045349 
	C660.794128,750.045349 660.922485,750.001648 660.762024,749.871643 
	C660.345093,749.501099 660.088562,749.260559 659.832031,749.020020 
	C659.832031,749.020020 659.946350,748.976440 659.786743,748.842041 
	C659.372253,748.467712 659.117310,748.227722 658.862427,747.987793 
	C658.862427,747.987793 658.980957,747.963379 658.831177,747.843933 
	C658.468323,747.479004 658.230591,747.260437 657.968018,747.068909 
	C657.968018,747.068909 657.929626,747.057373 657.874512,746.699890 
	C656.763550,744.950500 655.707703,743.558533 654.651917,742.166626 
	C654.651917,742.166626 654.786377,741.977112 654.700256,741.851562 
	C654.359985,741.486389 654.105896,741.246765 653.851807,741.007080 
	C653.851807,741.007080 653.962341,740.974548 653.798706,740.838440 
	C653.380127,740.462585 653.125305,740.222839 652.870422,739.983093 
	C652.870422,739.983093 652.990479,740.057922 652.920532,739.801453 
	C652.039551,738.708130 651.228455,737.871277 650.417358,737.034424 
	C650.297119,736.906860 650.176880,736.779358 649.944214,736.065369 
	C648.824524,734.327698 647.817322,733.176636 646.810120,732.025513 
	C646.810120,732.025513 646.943726,732.044067 646.870972,731.806885 
	C646.484436,731.051270 646.170532,730.532837 645.856689,730.014343 
	C645.856689,730.014343 645.920410,730.304688 645.797607,729.987915 
	C644.982605,728.884399 644.290466,728.097778 643.598328,727.311096 
	C643.598328,727.311096 643.695679,727.050293 643.646240,726.908569 
	C643.359314,726.517639 643.121887,726.268372 642.884460,726.019165 
	C642.884460,726.019165 642.963928,726.275513 642.808594,725.985107 
	C642.047852,725.150269 641.442444,724.605713 640.837036,724.061157 
	C640.837036,724.061157 640.936218,724.059143 640.873840,723.806030 
	C640.494690,723.038879 640.177917,722.524902 639.861145,722.010864 
	C639.861145,722.010864 640.033447,722.180176 639.833618,722.043335 
	C639.243652,721.612915 638.853516,721.319275 638.463379,721.025635 
z"/>
<path fill="#69b900ff" opacity="1.000000" stroke="none" 
	d="
M208.568054,662.164551 
	C208.747986,661.644226 208.927933,661.123901 209.556839,660.077515 
	C211.677185,653.362122 213.348557,647.172791 215.022781,640.669556 
	C215.026062,639.937012 215.026474,639.518372 215.492691,639.079224 
	C217.770279,639.041321 219.585052,639.084717 221.393280,638.995300 
	C227.594360,638.688721 233.793152,638.335510 240.461899,638.004944 
	C257.698273,637.351990 274.465240,636.685974 291.232910,636.038452 
	C308.665039,635.365173 326.095245,634.629028 343.531006,634.066467 
	C367.120972,633.305298 390.715546,632.687805 414.307892,631.999390 
	C425.605774,631.669617 436.904022,631.345825 448.199219,630.939026 
	C449.477417,630.893066 450.736786,630.325195 452.472961,630.005737 
	C471.399323,629.683899 489.857239,629.331787 508.316132,629.040344 
	C514.641479,628.940430 520.972473,629.099487 527.294189,628.914001 
	C529.383057,628.852783 531.451172,628.081421 533.774963,627.370850 
	C536.019287,627.097412 538.017456,627.087708 540.015564,627.078003 
	C540.015564,627.078003 539.941589,626.927612 539.875244,627.284729 
	C540.190613,628.129456 540.572388,628.617065 540.954224,629.104614 
	C540.954224,629.104614 540.969482,629.039490 541.055237,629.340698 
	C542.080811,630.793823 543.020569,631.945740 543.960388,633.097656 
	C543.960388,633.097656 543.975647,633.033020 544.057373,633.335754 
	C545.078979,634.792358 546.018860,635.946289 546.958740,637.100159 
	C546.958740,637.100159 546.983826,637.020752 547.034973,637.276428 
	C547.392517,637.713196 547.698853,637.894287 548.005188,638.075317 
	C548.005188,638.075378 547.946777,637.940857 547.958984,638.271423 
	C548.307922,638.766968 548.644714,638.931946 548.981506,639.096924 
	C548.981506,639.096924 548.986450,639.013733 548.926453,639.351685 
	C549.233765,639.834839 549.601074,639.980103 549.968384,640.125366 
	C549.968384,640.125366 549.939819,640.004700 549.785889,640.357971 
	C550.048828,641.215332 550.465820,641.719482 550.882751,642.223572 
	C550.882751,642.223572 550.996033,642.103638 550.992981,642.348145 
	C551.322632,642.759521 551.655334,642.926453 551.988098,643.093384 
	C551.988098,643.093323 551.975647,642.991211 551.895447,643.314880 
	C552.197937,644.114929 552.580688,644.591248 552.963379,645.067627 
	C552.963379,645.067627 552.997986,645.013916 553.074219,645.304932 
	C553.696899,646.172791 554.243286,646.749634 554.789734,647.326477 
	C554.789734,647.326477 555.008301,647.220947 554.922913,647.421875 
	C555.216431,648.094299 555.595398,648.565918 555.974304,649.037476 
	C555.974304,649.037476 556.004089,649.004333 556.069702,649.266663 
	C556.426086,649.710449 556.716797,649.891846 557.007507,650.073303 
	C557.007507,650.073303 556.979309,649.959595 556.991150,650.268066 
	C557.332886,650.747192 557.662781,650.917847 557.992676,651.088501 
	C557.992676,651.088501 557.860901,650.948730 557.890259,651.350281 
	C559.586975,653.889038 561.254333,656.026245 562.921692,658.163513 
	C562.921692,658.163513 562.925537,658.073730 562.993530,658.353088 
	C563.610535,659.213196 564.159668,659.793945 564.708740,660.374695 
	C564.708740,660.374695 564.976257,660.279419 564.865234,660.465942 
	C565.151855,661.135071 565.549500,661.617554 565.947083,662.100098 
	C565.947083,662.100098 565.972534,662.035461 566.040527,662.325684 
	C566.638672,663.206238 567.168823,663.796631 567.699036,664.387024 
	C567.699036,664.387024 567.978882,664.289062 567.873596,664.471069 
	C568.167114,665.135254 568.565857,665.617371 568.964661,666.099548 
	C568.964661,666.099548 568.986816,666.017212 569.035645,666.275696 
	C569.391602,666.716187 569.698608,666.898254 570.005676,667.080261 
	C570.005676,667.080261 569.964966,666.951355 569.973511,667.271240 
	C570.317688,667.758240 570.653320,667.925415 570.988892,668.092590 
	C570.988892,668.092590 570.992981,668.003784 570.910767,668.316162 
	C571.211731,669.106140 571.594910,669.583740 571.978088,670.061340 
	C571.978088,670.061340 572.002380,670.006042 572.062439,670.264038 
	C572.417480,670.705994 572.712402,670.889954 573.007385,671.073914 
	C573.007385,671.073914 572.937256,670.954224 572.982544,671.302734 
	C573.988586,672.829712 574.949341,674.008118 575.910095,675.186462 
	C575.910095,675.186462 575.932190,675.052979 575.973877,675.355042 
	C576.986389,676.822815 577.957153,677.988525 578.927917,679.154236 
	C578.927917,679.154236 578.932556,679.069275 579.010315,679.368164 
	C580.040649,680.816345 580.993225,681.965759 581.945740,683.115112 
	C581.945740,683.115112 581.959778,683.048645 582.030457,683.332581 
	C582.641724,684.203735 583.182312,684.790955 583.722900,685.378174 
	C583.722900,685.378174 583.990906,685.274658 583.892944,685.459106 
	C584.184570,686.128479 584.574097,686.613403 584.963684,687.098267 
	C584.963684,687.098267 584.981323,687.023987 585.031860,687.284180 
	C585.388916,687.729919 585.695374,687.915466 586.001892,688.100952 
	C586.001892,688.100952 585.906067,687.953430 585.938843,688.303711 
	C586.635559,689.461609 587.299561,690.269226 587.963562,691.076904 
	C587.963562,691.076904 587.986633,691.017090 588.049011,691.275024 
	C588.409180,691.713379 588.706909,691.893921 589.004700,692.074402 
	C589.004700,692.074402 588.917297,691.947266 588.966919,692.321167 
	C590.988770,695.180359 592.960999,697.665710 594.933228,700.151001 
	C594.933228,700.151001 594.961243,700.038574 595.011719,700.327637 
	C595.680603,701.135071 596.299011,701.653442 596.917480,702.171753 
	C596.917480,702.171753 596.974304,702.070251 596.845398,702.364685 
	C597.117493,703.146301 597.518494,703.633484 597.919495,704.120728 
	C597.919495,704.120728 597.961121,704.040588 598.022461,704.348877 
	C598.727478,705.426331 599.371277,706.195496 600.015015,706.964661 
	C600.015015,706.964661 599.991760,706.998169 600.095520,707.240356 
	C600.473145,707.683350 600.747009,707.884155 601.020874,708.084961 
	C601.020874,708.084961 600.976685,707.996521 601.039062,708.302002 
	C601.646973,709.193604 602.192627,709.779846 602.738220,710.366028 
	C602.738220,710.366028 602.994629,710.263733 602.894897,710.450317 
	C603.185425,711.113464 603.575684,711.589966 603.965942,712.066467 
	C603.965942,712.066467 603.994324,712.011902 604.056396,712.272400 
	C604.413574,712.713745 604.708740,712.894531 605.003967,713.075317 
	C605.003967,713.075317 604.959839,712.949829 604.965210,713.275085 
	C605.309326,713.765076 605.648010,713.929749 605.986694,714.094482 
	C605.986694,714.094482 605.828735,713.955627 605.850220,714.372314 
	C607.556396,716.912720 609.241028,719.036438 610.925720,721.160095 
	C610.925720,721.160095 610.977783,721.038391 611.006348,721.294800 
	C611.355957,721.728394 611.677002,721.905640 611.998108,722.082825 
	C611.998108,722.082825 611.854126,721.934387 611.886963,722.313599 
	C612.552246,723.215942 613.184692,723.739014 613.817139,724.262085 
	C613.817139,724.262085 613.735840,724.154419 613.704956,724.527710 
	C614.349854,725.723877 615.025757,726.546692 615.701599,727.369507 
	C615.701599,727.369507 615.979797,727.282410 615.885132,727.463257 
	C616.180298,728.132141 616.570007,728.620239 616.959717,729.108337 
	C616.959717,729.108337 617.003296,729.016907 617.043762,729.281494 
	C617.359131,729.825928 617.633972,730.105713 617.908875,730.385559 
	C630.862610,747.379211 643.816406,764.372864 656.815918,781.892944 
	C657.360046,782.894531 657.858398,783.369751 658.356750,783.845032 
	C658.356750,783.845032 658.216980,784.051636 658.297791,784.173828 
	C658.641418,784.533569 658.904236,784.771179 659.166992,785.008789 
	C659.166992,785.008789 659.023010,784.938538 659.120544,785.172607 
	C659.537903,785.926392 659.857727,786.446045 660.177490,786.965698 
	C660.177551,786.965698 660.024353,786.561951 660.246887,786.811523 
	C661.017151,787.660400 661.564941,788.259583 661.922241,789.209473 
	C659.554810,790.027649 657.374695,790.915771 655.201477,790.898926 
	C626.758728,790.678833 598.316406,790.035583 569.875000,790.081299 
	C522.956543,790.156799 476.039032,790.866028 429.120789,790.910034 
	C392.732086,790.944092 356.342804,790.370544 319.490356,790.052734 
	C312.419189,790.031982 305.800323,789.802673 299.209229,790.130798 
	C296.631470,790.259155 294.115997,791.639221 291.265045,792.635498 
	C288.883148,793.800415 286.808350,794.779053 284.733521,795.757629 
	C284.733521,795.757629 284.841125,795.878723 284.570709,795.808411 
	C283.806824,796.129211 283.313324,796.520264 282.819885,796.911377 
	C282.819885,796.911377 282.944824,796.982605 282.694641,797.001953 
	C282.269043,797.346497 282.093658,797.671753 281.918304,797.996948 
	C281.918304,797.996948 282.045959,797.936157 281.714478,797.942627 
	C281.225128,798.295837 281.067230,798.642517 280.909302,798.989197 
	C280.909332,798.989197 280.989594,798.989624 280.680908,798.961304 
	C280.215851,799.285950 280.059540,799.638855 279.903229,799.991821 
	C279.903229,799.991821 280.005280,799.780884 279.639771,799.875732 
	C278.791290,800.580505 278.308319,801.190369 277.825378,801.800232 
	C277.825378,801.800232 277.869080,801.918274 277.641357,801.968384 
	C277.225128,802.347839 277.036621,802.677124 276.848083,803.006470 
	C276.848083,803.006470 276.973114,803.040100 276.708496,803.040161 
	C276.250366,803.364136 276.056854,803.688171 275.863373,804.012146 
	C275.863373,804.012146 276.009033,804.013489 275.737640,804.034485 
	C275.268494,804.374878 275.070740,804.694214 274.872955,805.013611 
	C274.872955,805.013611 275.002228,805.029297 274.764832,805.054993 
	C274.335114,805.361633 274.142853,805.642639 273.950562,805.923584 
	C270.524811,809.519104 267.099030,813.114685 263.187378,817.035461 
	C262.464478,817.608582 262.227448,817.856567 261.990417,818.104492 
	C261.990417,818.104492 261.985352,817.989929 261.850708,818.167969 
	C261.471130,818.595886 261.226166,818.845703 260.981201,819.095581 
	C260.981201,819.095581 260.995697,818.968567 260.859711,819.157104 
	C260.479187,819.608215 260.234680,819.870728 259.990173,820.133301 
	C259.990173,820.133301 259.980103,819.995300 259.857117,820.173950 
	C259.486755,820.606689 259.239380,820.860779 258.992004,821.114868 
	C258.992004,821.114868 259.056610,820.968384 258.825806,821.145935 
	C257.425293,822.620361 256.255646,823.917297 255.085953,825.214172 
	C255.085953,825.214172 254.987137,825.107300 254.867172,825.247925 
	C254.504501,825.627808 254.261810,825.867126 254.019135,826.106445 
	C254.019135,826.106445 254.011826,826.019104 253.888885,826.209961 
	C253.518143,826.637268 253.270340,826.873779 253.022552,827.110229 
	C253.022537,827.110229 253.047150,827.001343 252.914078,827.233093 
	C252.523041,827.981934 252.265091,828.499023 252.007141,829.016113 
	C252.007141,829.016113 251.997559,828.997559 251.828949,829.174438 
	C251.431900,829.593323 251.209625,829.840942 250.993500,830.093994 
	C250.993500,830.093994 251.011627,830.018188 250.746338,830.120850 
	C250.020111,830.875488 249.559174,831.527466 249.098236,832.179443 
	C249.098251,832.179443 249.098022,832.097351 248.791199,832.148926 
	C247.721970,833.234375 246.959534,834.268372 246.197098,835.302307 
	C246.197098,835.302307 245.991653,835.208008 245.859314,835.287476 
	C245.486984,835.607361 245.246994,835.847717 245.007019,836.088135 
	C245.007019,836.088135 245.005386,836.005249 244.871429,836.190674 
	C244.496017,836.615662 244.254532,836.855225 244.013062,837.094849 
	C244.013092,837.094849 244.010925,837.011475 243.880585,837.199219 
	C243.506012,837.625000 243.261765,837.863037 243.017517,838.101074 
	C243.017502,838.101074 243.015884,838.015991 242.886795,838.205078 
	C242.512817,838.632629 242.267929,838.871216 242.023026,839.109741 
	C242.023010,839.109741 242.180084,838.998108 241.942749,839.198486 
	C241.207367,840.049377 240.709290,840.699951 240.211212,841.350525 
	C240.211227,841.350525 239.999023,841.235413 239.882721,841.319702 
	C239.518845,841.640198 239.271286,841.876343 239.023712,842.112488 
	C239.023697,842.112488 239.020889,842.023071 238.891510,842.210571 
	C238.516083,842.635437 238.270004,842.872864 238.023926,843.110291 
	C238.023911,843.110291 238.024796,843.023010 237.887085,843.206543 
	C237.505585,843.628052 237.261810,843.866028 237.018036,844.103943 
	C237.018021,844.103943 237.282578,844.035278 236.937302,844.163147 
	C231.091766,847.091064 225.574432,849.579407 219.207916,846.918762 
	C217.879196,846.363464 216.325516,846.346313 214.875488,846.081177 
	C214.875488,846.081238 214.945679,846.067688 214.791183,845.799316 
	C213.035843,844.714844 211.434998,843.898804 209.834167,843.082764 
	C209.834183,843.082703 209.961166,843.031250 209.809692,842.896484 
	C209.405823,842.515625 209.153442,842.269531 208.901062,842.023376 
	C208.901077,842.023376 209.046738,842.223389 208.803619,841.966431 
	C207.326035,841.169983 206.091568,840.630493 204.857101,840.090942 
	C204.857101,840.090942 204.942322,840.076904 204.803680,839.804260 
	C202.692398,838.411682 200.719757,837.291809 198.747116,836.171875 
	C198.747116,836.171875 198.892624,836.131104 198.768036,835.881348 
	C196.263443,833.821655 193.883453,832.011780 191.332733,830.127991 
	C190.953033,829.883240 190.858292,829.663208 190.840042,829.042114 
	C190.090042,827.823792 189.377792,826.957336 188.752686,826.111023 
	C188.839844,826.131165 188.795319,826.304443 188.762970,825.982300 
	C188.410980,825.113464 188.091339,824.566772 187.845612,824.054932 
	C187.919525,824.089661 187.847977,824.236572 187.875549,823.753906 
	C187.931061,818.811890 187.959015,814.352539 188.197708,809.569885 
	C189.606598,798.500122 190.804764,787.753723 192.202728,776.668701 
	C193.951569,764.996582 195.651825,753.680969 196.993286,742.322937 
	C197.803665,735.461609 198.057144,728.534546 198.538483,721.217529 
	C201.866745,701.253540 205.217392,681.709045 208.568054,662.164551 
z"/>
<path fill="#69b900ff" opacity="1.000000" stroke="none" 
	d="
M664.964600,171.890930 
	C665.025085,171.550476 665.206482,171.296310 666.020874,170.974945 
	C667.014465,170.500076 667.495911,170.178696 667.977356,169.857330 
	C667.977356,169.857346 667.841919,169.982971 668.068970,169.791245 
	C668.814270,168.967499 669.332520,168.335480 669.850769,167.703461 
	C669.850769,167.703461 669.889709,167.844833 670.102722,167.729919 
	C670.832275,166.981049 671.348816,166.347107 671.865417,165.713165 
	C671.865417,165.713165 671.906067,165.853714 672.134277,165.741150 
	C673.208862,164.674561 674.055176,163.720551 674.901550,162.766525 
	C674.901550,162.766525 674.924683,162.894562 675.158081,162.772903 
	C676.230774,161.684708 677.070190,160.718185 677.909607,159.751648 
	C677.909607,159.751663 678.028564,159.872742 678.147949,159.750198 
	C678.508667,159.387695 678.750122,159.147751 678.991516,158.907806 
	C678.991516,158.907791 678.990784,158.991409 679.133179,158.810181 
	C679.515625,158.388702 679.755615,158.148422 679.995667,157.908142 
	C679.995667,157.908157 679.997620,157.993988 680.136475,157.814850 
	C680.515442,157.394531 680.755676,157.153351 680.995850,156.912170 
	C680.995850,156.912170 680.995544,156.995956 681.138123,156.815933 
	C681.518982,156.394470 681.757263,156.153015 681.995483,155.911560 
	C681.995483,155.911545 681.996643,155.995316 682.140747,155.813171 
	C682.523132,155.382980 682.761475,155.134933 682.999817,154.886902 
	C682.999817,154.886917 683.017090,154.985443 683.145630,154.806885 
	C683.515747,154.385605 683.757324,154.142883 683.998840,153.900146 
	C683.998840,153.900146 684.007935,153.991196 684.141846,153.811234 
	C684.517944,153.391556 684.760071,153.151825 685.002258,152.912109 
	C685.002258,152.912125 685.005737,152.998764 685.145508,152.816437 
	C685.524414,152.387726 685.763611,152.141327 686.002808,151.894943 
	C686.002808,151.894943 686.015991,151.990448 686.146606,151.814713 
	C686.519165,151.399017 686.761047,151.159058 687.002930,150.919098 
	C687.002930,150.919113 686.922852,151.040863 687.140869,150.858154 
	C687.893555,150.053970 688.428345,149.432495 688.963135,148.811035 
	C688.963135,148.811050 688.872070,148.947433 689.162842,148.866821 
	C691.256165,146.778610 693.058716,144.771011 694.861206,142.763397 
	C694.861206,142.763397 695.012207,142.856674 695.148438,142.746841 
	C695.526733,142.385010 695.768860,142.133026 696.011047,141.881042 
	C696.011047,141.881042 696.024109,141.997589 696.153320,141.819016 
	C696.526367,141.380920 696.770203,141.121384 697.013977,140.861847 
	C697.013977,140.861847 697.046204,140.980316 697.170715,140.813995 
	C697.535095,140.397339 697.774963,140.147034 698.014832,139.896729 
	C698.014832,139.896744 698.019104,140.013077 698.149597,139.836670 
	C698.520203,139.409729 698.760376,139.159195 699.000488,138.908661 
	C699.000488,138.908661 698.983521,138.977539 699.240356,138.896362 
	C699.990967,138.492081 700.484741,138.168961 700.978455,137.845825 
	C700.978455,137.845825 701.000305,137.957840 701.125488,137.785797 
	C701.496765,137.376450 701.742798,137.139175 701.988770,136.901886 
	C701.988770,136.901871 701.986877,136.986603 702.135742,136.806305 
	C702.521545,136.373642 702.758423,136.121292 702.995300,135.868958 
	C702.995300,135.868958 703.019226,135.972305 703.160461,135.804642 
	C703.539490,135.377548 703.777283,135.118118 704.015015,134.858704 
	C704.015076,134.858719 703.954163,134.972382 704.292847,134.943176 
	C706.166260,134.497559 707.701111,134.081131 709.235901,133.664688 
	C709.235901,133.664688 709.243164,133.894302 709.304443,134.085236 
	C709.607239,134.515121 709.848755,134.754074 710.090332,134.993027 
	C710.090332,134.993027 710.009399,134.990250 710.182617,135.149078 
	C710.618408,135.540985 710.880981,135.774033 711.143494,136.007080 
	C711.143494,136.007080 711.023682,135.970200 711.089600,136.267975 
	C712.182983,138.351379 713.210571,140.137009 714.238159,141.922638 
	C714.238159,141.922623 714.225037,141.729416 714.327515,142.033447 
	C714.977722,142.872055 715.525452,143.406631 716.073120,143.941223 
	C716.073120,143.941223 716.005066,143.982132 716.104675,144.242950 
	C716.520264,145.011444 716.836243,145.519104 717.152222,146.026764 
	C717.152222,146.026779 717.008911,145.930481 717.110107,146.172379 
	C717.534180,146.942200 717.857056,147.470139 718.179932,147.998077 
	C718.179932,147.998062 718.048157,147.850433 718.156006,148.103180 
	C718.572388,148.894577 718.880920,149.433228 719.189392,149.971893 
	C719.189392,149.971893 719.061096,150.004456 719.219727,150.134583 
	C719.659973,150.466232 719.941589,150.667725 720.223267,150.869232 
	C720.354614,150.970383 720.542725,151.043228 720.609253,151.176697 
	C729.765320,169.545395 743.372070,184.417938 757.887573,198.564316 
	C763.738953,204.266937 768.034424,210.581009 766.657593,220.045013 
	C767.529602,234.128296 768.611816,247.460159 769.778870,260.784576 
	C769.815002,261.196716 770.732422,261.531647 771.238953,261.902588 
	C771.238953,261.902588 771.135925,261.939148 771.098267,262.297424 
	C772.103149,268.633942 773.570312,274.385468 779.206177,277.911163 
	C779.206177,277.911163 779.104675,278.030273 779.225830,278.165497 
	C779.598999,278.538696 779.850952,278.776672 780.102844,279.014648 
	C780.102844,279.014648 780.013855,278.976746 780.100464,279.226685 
	C780.505737,279.980713 780.824341,280.484833 781.143005,280.988922 
	C781.143005,280.988922 781.026306,280.984253 781.197266,281.122864 
	C781.616516,281.501495 781.864685,281.741547 782.112915,281.981598 
	C782.112915,281.981598 782.015076,281.926971 782.188232,282.180664 
	C784.013428,283.902222 785.665405,285.370087 787.317444,286.837952 
	C787.317444,286.837921 787.157715,286.843170 787.213867,287.113647 
	C789.591431,289.542542 791.912842,291.700958 794.234192,293.859344 
	C794.234192,293.859344 794.144897,294.012543 794.248169,294.156250 
	C794.600952,294.537445 794.850525,294.774933 795.100098,295.012451 
	C795.100037,295.012451 795.001831,295.025696 795.177124,295.161926 
	C795.599854,295.538116 795.847351,295.778046 796.094849,296.017975 
	C796.094849,296.017975 795.988953,296.023621 796.169312,296.157654 
	C796.602661,296.535309 796.855591,296.778992 797.108582,297.022644 
	C797.108582,297.022644 796.994690,297.039215 797.170715,297.165344 
	C797.596558,297.533417 797.846375,297.775360 798.096191,298.017334 
	C798.096191,298.017334 797.982544,298.019135 798.159668,298.149170 
	C798.583313,298.519440 798.829773,298.759613 799.076233,298.999817 
	C799.076233,298.999847 799.010193,298.994110 799.077942,299.294434 
	C800.165710,300.708893 801.185730,301.822998 802.205750,302.937103 
	C802.205750,302.937103 802.072083,302.771271 802.174927,303.066162 
	C803.263428,304.201630 804.249146,305.042236 805.234802,305.882843 
	C805.234802,305.882843 805.133362,306.026825 805.240479,306.162750 
	C805.594116,306.537537 805.840637,306.776398 806.087158,307.015259 
	C806.087158,307.015259 805.990417,307.019440 806.168579,307.159851 
	C806.600037,307.541321 806.853333,307.782349 807.106567,308.023376 
	C807.106567,308.023376 806.990784,308.037170 807.162598,308.161774 
	C807.583557,308.520355 807.832764,308.754303 808.081909,308.988281 
	C808.081909,308.988281 808.016968,308.983521 808.087036,309.296143 
	C809.192688,310.579712 810.228271,311.550690 811.275085,312.553040 
	C811.286316,312.584381 811.228699,312.617798 811.271545,312.951599 
	C811.935852,313.833160 812.557251,314.380890 813.126343,314.923279 
	C813.074097,314.917938 813.087097,314.813629 813.128296,315.152740 
	C813.879822,316.311707 814.590149,317.131531 815.213135,317.926941 
	C815.125793,317.902557 815.177795,317.728760 815.152100,318.125488 
	C816.874695,322.007080 818.622986,325.491974 820.254639,328.968933 
	C820.138062,328.960999 820.156616,328.727997 820.202759,329.047424 
	C820.548950,329.922974 820.848877,330.479126 821.080444,330.984436 
	C821.012085,330.933594 821.114014,330.797028 821.124878,331.155579 
	C821.521179,332.351959 821.906616,333.189728 822.195618,333.959412 
	C822.099182,333.891357 822.237427,333.699982 822.203857,334.086304 
	C822.891724,335.980103 823.613098,337.487549 824.231934,338.942932 
	C824.129395,338.890900 824.236450,338.687347 824.188843,339.111023 
	C825.450195,344.672089 827.052856,349.755951 828.000977,354.959106 
	C829.514771,363.266388 830.593567,371.652954 831.931946,380.206665 
	C832.007629,380.407349 832.030396,380.835693 832.022827,381.251709 
	C832.278503,383.747925 832.541748,385.828125 832.878296,388.327820 
	C833.646973,393.474854 834.342346,398.202393 835.056885,403.315399 
	C835.500488,404.640228 835.924927,405.579529 836.256836,406.565002 
	C836.164246,406.611176 836.070862,406.426544 836.058228,406.906250 
	C836.070557,416.955658 836.095459,426.525299 836.355103,436.081604 
	C836.589783,436.068237 836.623718,436.537140 836.204834,436.407959 
	C831.534851,435.138916 827.283691,433.999054 822.686890,432.836395 
	C820.448730,431.954498 818.556152,431.095428 816.737000,429.987305 
	C815.411133,429.389984 814.011841,429.041687 812.684082,428.708893 
	C812.755615,428.724426 812.611267,428.748444 812.476685,428.393250 
	C809.497437,427.076691 806.652771,426.115356 803.882935,425.165100 
	C803.957764,425.176208 803.932678,425.325500 803.756348,424.992767 
	C801.975891,424.175232 800.371765,423.690399 798.848022,423.163391 
	C798.928345,423.121185 799.010193,423.283203 798.767151,423.074585 
	C797.930298,422.676056 797.336426,422.486115 796.835266,422.354523 
	C796.927917,422.412872 796.808350,422.596344 796.623535,422.263306 
	C789.856567,419.720123 783.274475,417.509979 776.773499,415.228760 
	C776.854614,415.157623 776.994080,415.322174 776.727295,415.084473 
	C775.555115,414.631531 774.649719,414.416229 773.843506,414.176971 
	C773.942566,414.153015 773.987183,414.351990 773.734131,414.098328 
	C772.588562,413.612640 771.695984,413.380585 770.895630,413.136963 
	C770.987854,413.125397 771.008728,413.310028 770.777100,413.092072 
	C769.965881,412.657745 769.386353,412.441345 768.891235,412.374359 
	C768.975586,412.523743 768.677979,412.694580 768.530396,412.345703 
	C764.499939,410.741913 760.617065,409.487000 756.835938,408.198059 
	C756.937622,408.164062 757.002075,408.368591 756.742065,408.117859 
	C755.581177,407.636261 754.680359,407.405426 753.872192,407.147614 
	C753.964905,407.120667 754.016296,407.306763 753.751587,407.065857 
	C752.584106,406.598938 751.681335,406.372955 750.781433,406.180359 
	C750.784302,406.213776 750.717834,406.222626 750.587769,405.901489 
	C744.402771,403.138336 738.394104,400.570923 732.271667,398.311737 
	C729.561096,397.311554 726.620300,396.935181 723.784058,396.275604 
	C723.784058,396.275604 723.866272,396.194794 723.676514,395.960815 
	C713.645569,391.863708 703.837891,387.911560 693.940369,384.198730 
	C691.401550,383.246368 688.579285,383.049469 685.880859,382.484497 
	C685.874512,382.463501 685.880981,382.420197 685.725586,382.077423 
	C681.964478,380.548981 678.358826,379.363312 674.828064,378.169464 
	C674.903015,378.161316 674.915405,378.311615 674.755737,377.981812 
	C670.984924,376.490082 667.373718,375.328186 663.837646,374.157288 
	C663.912781,374.148285 663.927185,374.298920 663.763184,373.973907 
	C658.645752,371.847290 653.692444,370.045685 648.794495,368.263245 
	C648.849915,368.282440 648.806519,368.391357 648.659607,368.043304 
	C646.894348,367.233551 645.276062,366.771881 643.756042,366.266907 
	C643.854370,366.223663 643.935730,366.422455 643.719971,366.114502 
	C641.908203,365.284332 640.312317,364.762115 638.814941,364.218811 
	C638.913574,364.197693 638.951355,364.395782 638.735840,364.088898 
	C635.931091,362.920715 633.341858,362.059387 630.837280,361.163513 
	C630.922058,361.128998 630.988098,361.299652 630.757568,361.009094 
	C628.921448,360.224396 627.315796,359.730255 625.806763,359.197998 
	C625.903259,359.159851 625.975830,359.354309 625.752869,359.055725 
	C622.931091,357.905182 620.332214,357.053284 617.818420,356.192505 
	C617.903442,356.183624 617.916870,356.354095 617.756348,356.022430 
	C613.314209,354.201172 609.032532,352.711578 604.839600,351.180298 
	C604.928345,351.138611 605.008728,351.317413 604.744751,351.077332 
	C603.582581,350.605316 602.684265,350.373383 601.855347,350.137573 
	C601.924622,350.133759 601.929138,350.272552 601.755249,349.947449 
	C600.263428,349.301178 598.945496,348.980011 597.659912,348.684082 
	C597.692261,348.709351 597.611145,348.722229 597.481079,348.370941 
	C592.802185,346.434875 588.253357,344.850098 583.801636,343.223083 
	C583.898743,343.180878 583.979065,343.376801 583.752563,343.152435 
	C582.946716,342.714111 582.367371,342.500122 581.867554,342.415466 
	C581.947083,342.544739 581.689331,342.705078 581.537476,342.350098 
	C575.840576,340.073395 570.295593,338.151642 564.829163,336.230347 
	C564.907776,336.230804 564.902039,336.387970 564.699585,336.078186 
	C561.914307,334.907837 559.331482,334.047272 556.828491,333.174896 
	C556.908386,333.163086 556.928040,333.323303 556.750732,332.988953 
	C554.952820,332.192719 553.332153,331.730835 551.792725,331.207153 
	C551.873901,331.145416 551.994690,331.309906 551.754089,331.096130 
	C550.915955,330.692413 550.318481,330.502502 549.811401,330.364929 
	C549.901794,330.417328 549.793396,330.595978 549.603699,330.257874 
	C547.529663,329.340179 545.645386,328.760590 543.834534,328.181793 
	C543.908020,328.182617 543.902344,328.329529 543.747253,328.008484 
	C541.708740,326.786102 539.825317,325.884796 537.853943,324.922607 
	C537.765991,324.861725 537.880066,324.680725 537.885986,324.276917 
	C537.125244,322.620850 536.358643,321.368622 535.691528,320.114258 
	C535.791077,320.112122 535.790466,320.311249 535.749512,319.982910 
	C535.372681,319.102234 535.036865,318.549896 534.791748,318.046265 
	C534.882446,318.094971 534.782471,318.274902 534.798828,317.913757 
	C534.287781,316.845825 533.760437,316.139008 533.345520,315.185394 
	C533.623230,315.011963 533.788513,315.085358 533.741333,314.973572 
	C533.258362,314.527802 532.987854,314.267273 532.819702,314.057922 
	C532.922058,314.109100 532.817627,314.312836 532.770020,313.995514 
	C532.382019,313.160950 532.041626,312.643707 531.477234,311.951172 
	C530.859619,311.138489 530.466064,310.501129 530.072449,309.863770 
	C530.072449,309.863770 530.053284,309.949921 530.027466,309.597046 
	C528.689148,306.461609 527.376648,303.679047 526.064148,300.896454 
	C526.064148,300.896454 526.035950,300.959290 526.009460,300.594910 
	C524.677124,297.451111 523.371216,294.671753 522.065369,291.892365 
	C522.065369,291.892365 522.039856,291.955292 522.011841,291.586975 
	C519.400146,285.404724 516.816528,279.590820 514.232971,273.776886 
	C514.232971,273.776886 514.161560,273.889435 514.215454,273.518555 
	C508.536316,257.766388 502.803284,242.385132 497.218323,226.722839 
	C496.005676,223.409622 494.644989,220.377441 493.334778,217.230179 
	C493.385284,217.115097 493.616455,217.213760 493.677979,216.844147 
	C492.947662,215.056839 492.155853,213.639114 491.463074,212.152100 
	C491.562073,212.082809 491.697845,212.282776 491.672974,211.960022 
	C491.329163,211.087891 491.010254,210.538498 490.783569,210.027405 
	C490.875793,210.065704 490.796509,210.249054 490.839203,209.859528 
	C490.159576,207.998260 489.437256,206.526550 488.790192,205.049255 
	C488.865448,205.043686 488.874023,205.194336 488.868530,204.834885 
	C488.450256,203.652573 488.037476,202.829712 487.730377,202.062347 
	C487.836060,202.117844 487.721466,202.327271 487.777649,201.930115 
	C487.112885,200.054733 486.391907,198.576492 485.748352,197.091522 
	C485.825806,197.084808 485.835480,197.239975 485.836975,196.878281 
	C485.460144,195.675415 485.081879,194.834259 484.791870,194.059753 
	C484.880157,194.126434 484.744476,194.301239 484.784363,193.883972 
	C484.007050,187.081757 484.007721,187.127533 490.393860,187.035110 
	C513.030029,186.707550 535.666809,186.403687 558.301086,185.970856 
	C568.444214,185.776901 578.583435,185.332672 588.720642,184.911530 
	C590.181458,184.850845 591.621033,184.280563 593.524292,183.970749 
	C605.316101,183.308868 616.654114,182.622360 628.302734,182.099167 
	C633.419434,182.167648 638.264160,182.422409 643.022156,181.894623 
	C649.859680,181.136169 656.996948,180.751175 661.894592,174.719223 
	C661.894592,174.719223 662.030212,174.846725 662.161438,174.739090 
	C662.528931,174.377350 662.765137,174.123245 663.001343,173.869141 
	C663.001343,173.869125 663.026855,173.975571 663.164551,173.808502 
	C663.540344,173.384827 663.778564,173.128189 664.016785,172.871582 
	C664.016785,172.871582 664.044983,172.988815 664.166687,172.822571 
	C664.513794,172.401184 664.739197,172.146057 664.964600,171.890930 
z"/>
<path fill="#69b900ff" opacity="1.000000" stroke="none" 
	d="
M497.144409,290.933838 
	C501.427948,300.825134 505.354065,310.894562 510.155487,320.527740 
	C512.344910,324.920441 511.961121,327.864075 509.213745,331.632416 
	C485.528198,364.119659 462.001068,396.722290 438.409027,429.277740 
	C436.557068,431.833344 434.572266,434.292664 432.139648,436.885559 
	C431.228455,437.781921 430.826782,438.589417 430.425079,439.396942 
	C430.425079,439.396942 430.320251,439.328033 429.972931,439.339752 
	C428.381683,439.594482 427.137756,439.837494 425.893829,440.080505 
	C425.893829,440.080505 425.966827,440.043457 425.896912,439.749817 
	C425.118622,438.664734 424.410248,437.873260 423.701904,437.081757 
	C423.701904,437.081757 423.850342,436.937347 423.736969,436.822540 
	C423.362366,436.469269 423.101135,436.230804 422.839935,435.992340 
	C422.839935,435.992340 422.965515,435.951813 422.811218,435.830322 
	C422.404602,435.478699 422.152313,435.248627 421.900024,435.018524 
	C421.900024,435.018524 421.967560,435.031860 421.903137,434.718628 
	C420.840271,433.295959 419.841827,432.186523 418.843353,431.077118 
	C418.843353,431.077118 418.923676,431.075775 418.878418,430.760132 
	C416.813538,428.000977 414.793884,425.557434 412.774261,423.113892 
	C412.774261,423.113892 412.884521,423.102875 412.831299,422.851440 
	C412.437042,422.092316 412.095947,421.584625 411.754852,421.076935 
	C411.754852,421.076935 411.886475,420.997314 411.733704,420.881287 
	C411.332581,420.520050 411.084198,420.274872 410.835815,420.029724 
	C410.835815,420.029724 410.950134,420.263824 410.804779,419.986298 
	C410.047760,419.168274 409.436096,418.627747 408.824402,418.087219 
	C408.824402,418.087250 408.913849,418.082855 408.851379,417.826355 
	C408.459229,417.061676 408.129547,416.553497 407.799866,416.045319 
	C407.799866,416.045319 407.923340,415.996429 407.751282,415.878418 
	C407.325043,415.516205 407.070892,415.272034 406.816742,415.027863 
	C406.816742,415.027863 406.951996,415.229889 406.810730,414.964203 
	C406.051727,414.161682 405.433990,413.624847 404.816284,413.088013 
	C404.816284,413.088013 404.912415,413.083588 404.851746,412.829071 
	C404.458008,412.068085 404.124939,411.561584 403.791870,411.055115 
	C403.791870,411.055115 403.915344,411.002380 403.751770,410.882874 
	C403.345215,410.517426 403.102203,410.271484 402.859192,410.025574 
	C402.859192,410.025574 402.962921,410.277222 402.808075,409.992920 
	C402.025879,409.174805 401.398560,408.641022 400.771240,408.107239 
	C400.771210,408.107269 400.882599,408.105164 400.851746,407.812500 
	C399.772400,406.396576 398.723877,405.273346 397.675354,404.150116 
	C397.675354,404.150116 397.821442,404.112457 397.742584,403.849823 
	C396.394745,402.441284 395.125763,401.295380 393.856781,400.149475 
	C393.856781,400.149475 393.896271,400.039581 393.767517,399.873352 
	C393.386047,399.466156 393.133362,399.225189 392.880646,398.984192 
	C392.880646,398.984192 392.991058,399.060577 392.891663,398.816010 
	C392.438385,398.083801 392.084534,397.596130 391.730682,397.108490 
	C391.730682,397.108490 391.863190,397.010193 391.712952,396.907532 
	C391.327972,396.551697 391.093201,396.298553 390.858398,396.045410 
	C390.858398,396.045410 390.956726,396.033630 390.768494,395.908386 
	C390.345490,395.532013 390.110748,395.280914 389.876007,395.029816 
	C389.876007,395.029816 389.969666,395.023132 389.780518,394.896698 
	C389.355164,394.521729 389.118958,394.273163 388.882782,394.024628 
	C388.882782,394.024628 388.973114,394.017731 388.790283,393.884399 
	C388.369019,393.507263 388.130585,393.263489 387.892151,393.019684 
	C387.892151,393.019684 387.978943,393.014709 387.794983,392.879395 
	C387.371429,392.502289 387.131775,392.260498 386.892151,392.018738 
	C386.892151,392.018738 387.002411,392.116882 386.818787,391.888397 
	C385.998993,391.135864 385.362823,390.611816 384.726654,390.087738 
	C384.726654,390.087738 384.861053,389.954559 384.741058,389.844238 
	C384.380493,389.492035 384.139923,389.250122 383.899384,389.008179 
	C383.899384,389.008179 383.987488,389.000488 383.805237,388.867157 
	C383.384094,388.492157 383.145172,388.250519 382.906250,388.008881 
	C382.906250,388.008881 382.991089,388.005280 382.804932,387.874878 
	C382.380341,387.501099 382.141907,387.257721 381.903473,387.014343 
	C381.903473,387.014343 381.987335,387.012390 381.797394,386.885071 
	C381.369019,386.512299 381.130554,386.266846 380.892120,386.021423 
	C380.892120,386.021423 381.019928,386.200562 380.800476,385.954712 
	C379.664551,385.184265 378.748077,384.659698 377.831635,384.135162 
	C377.831635,384.135162 377.953217,384.085876 377.830627,383.800842 
	C376.776764,383.030121 375.845490,382.544434 374.914246,382.058716 
	C374.914246,382.058716 374.976288,382.007843 374.865112,381.737061 
	C374.041077,381.090240 373.328186,380.714172 372.615295,380.338074 
	C372.615295,380.338074 372.745422,380.240997 372.657654,379.976624 
	C369.670319,378.216095 366.770813,376.719971 363.900452,375.202972 
	C363.929626,375.182098 363.959930,375.247131 363.798889,374.932281 
	C357.998474,372.161011 352.359131,369.704559 346.809692,367.199463 
	C346.899597,367.150787 346.993622,367.332397 346.752380,367.109131 
	C345.901245,366.694641 345.291412,366.503387 344.774506,366.287537 
	C344.867462,366.262878 344.910645,366.450317 344.663879,366.188293 
	C343.523743,365.689911 342.630402,365.453522 341.827728,365.185791 
	C341.918396,365.154449 341.977600,365.336945 341.750092,365.041351 
	C339.921967,364.243011 338.321320,363.740265 336.805145,363.235535 
	C336.889587,363.233551 336.888367,363.402466 336.740021,363.064270 
	C333.634064,361.560547 330.676422,360.395050 327.707886,359.250275 
	C327.696960,359.270996 327.651123,359.262299 327.596130,358.857483 
	C328.026581,353.300537 328.512085,348.148438 329.081116,342.604858 
	C329.980377,337.988403 331.284760,333.790436 331.519684,329.533386 
	C332.211578,316.996063 333.156403,304.405945 329.992981,291.567932 
	C329.951874,284.361450 329.900238,277.598083 329.819244,270.930328 
	C329.789886,271.025970 329.599060,270.965759 329.910706,270.731171 
	C330.756897,268.261322 331.291443,266.026062 331.823059,263.886841 
	C331.820129,263.982849 331.628204,263.974060 331.938782,263.735107 
	C332.791687,260.953156 333.334015,258.410187 333.842560,255.965591 
	C333.808777,256.063995 333.612122,255.995850 333.895630,255.730988 
	C335.170441,249.322922 336.161774,243.179733 337.125427,236.754150 
	C337.160919,236.293457 337.224091,236.115173 337.587524,235.767929 
	C338.327667,234.750122 338.941071,233.947388 339.180847,233.045349 
	C341.822540,223.107437 344.406067,213.154083 347.137634,202.916260 
	C347.930725,201.805420 348.591583,200.983231 349.252441,200.161041 
	C349.252411,200.161026 349.151093,200.155060 349.422821,200.071625 
	C350.247284,199.402374 350.800049,198.816544 351.352783,198.230713 
	C351.352783,198.230713 351.221558,198.029831 351.446381,198.069275 
	C351.817108,197.747345 351.963013,197.385986 352.108948,197.024628 
	C352.108948,197.024643 351.951630,197.151001 352.309631,197.241272 
	C353.025879,197.197266 353.384064,197.062988 354.085693,196.879715 
	C355.257446,196.102798 356.085785,195.374908 356.899689,194.742004 
	C356.885284,194.836990 356.695984,194.803986 357.078674,194.794952 
	C360.843933,192.945831 364.226562,191.105743 367.750000,189.326172 
	C367.890869,189.386703 367.772308,189.669464 368.086334,189.641190 
	C368.931213,189.295486 369.462067,188.978058 369.993927,188.751953 
	C369.994934,188.843246 369.812317,188.842834 370.251160,188.879028 
	C376.904449,188.312775 383.112946,187.299698 389.334839,187.209335 
	C397.557831,187.089920 405.791321,187.693375 414.374695,188.194580 
	C415.700775,188.590851 416.667877,188.912796 417.644806,188.945923 
	C428.930908,189.328568 440.222687,189.576004 451.502319,190.091782 
	C453.885681,190.200760 456.226044,191.249313 458.480896,191.914856 
	C458.375610,191.964737 458.278961,191.752686 458.231750,192.128876 
	C458.908630,193.998627 459.632690,195.492218 460.250244,196.940308 
	C460.143799,196.894791 460.238190,196.683350 460.207489,197.090088 
	C461.601349,200.600113 463.025909,203.703400 464.662415,207.084839 
	C466.550720,211.292191 468.227112,215.221420 469.903503,219.150650 
	C469.903503,219.150650 469.911865,219.062164 469.933075,219.418060 
	C471.202515,222.263062 472.450745,224.752151 473.698975,227.241241 
	C473.698975,227.241241 473.802246,227.165329 473.725708,227.484741 
	C474.360657,229.260452 475.072144,230.716751 475.783630,232.173050 
	C475.783630,232.173050 475.794495,232.076630 475.717285,232.482056 
	C481.020874,247.331345 486.401611,261.775208 491.782379,276.219055 
	C491.782379,276.219055 491.826355,276.077179 491.769165,276.425903 
	C492.398651,278.241364 493.085358,279.708038 493.772064,281.174744 
	C493.772064,281.174744 493.800293,281.092834 493.712067,281.482025 
	C494.797363,284.892090 495.970856,287.912964 497.144409,290.933838 
z"/>
<path fill="#69b900ff" opacity="1.000000" stroke="none" 
	d="
M261.824463,529.937439 
	C284.888794,511.072021 307.942413,492.193512 331.020905,473.345428 
	C348.820160,458.808868 366.650146,444.309998 384.468719,429.797119 
	C385.221680,429.183807 385.997498,428.598541 387.157074,427.691833 
	C392.303986,433.623718 397.639160,439.123169 402.240997,445.179810 
	C436.286835,489.988800 470.186249,534.908997 504.134369,579.792297 
	C505.137939,581.119141 506.170898,582.423767 507.588013,584.205017 
	C508.649017,585.464966 509.312103,586.258728 509.975159,587.052490 
	C509.975159,587.052490 510.004120,587.006042 510.066406,587.265503 
	C510.420471,587.707642 510.712280,587.890259 511.004089,588.072937 
	C511.004089,588.072937 510.971069,587.956238 510.981567,588.270020 
	C511.323456,588.752747 511.654846,588.921814 511.986237,589.090820 
	C511.986237,589.090820 511.955627,588.978760 511.894379,589.309387 
	C512.215088,590.114990 512.596985,590.590027 512.978943,591.065002 
	C513.132874,591.355286 513.286804,591.645569 513.752075,592.335205 
	C514.699951,593.499451 515.336426,594.264282 515.972961,595.029114 
	C515.972961,595.029114 516.000000,595.000000 516.072021,595.264099 
	C516.432129,595.710876 516.720215,595.893616 517.008301,596.076294 
	C517.008301,596.076294 516.923584,595.949524 516.976318,596.314453 
	C517.715271,598.095947 518.401428,599.512390 518.844849,601.239990 
	C517.227112,602.015686 515.867432,602.831299 514.474548,602.892761 
	C489.910828,603.975281 465.343628,604.980042 440.775909,605.971130 
	C423.845734,606.654236 406.912994,607.272461 389.982697,607.952393 
	C365.414917,608.939026 340.851410,610.039185 316.280182,610.927551 
	C301.660248,611.456055 287.026520,611.593323 272.403870,612.059570 
	C264.602936,612.308289 256.816864,613.086548 249.015991,613.258118 
	C239.255890,613.472778 229.487488,613.309753 219.163055,613.309753 
	C220.370773,608.630737 221.630295,603.691711 222.921646,598.760986 
	C225.189362,590.102234 227.476547,581.448547 229.755569,572.792786 
	C229.755569,572.792786 229.833069,572.872742 230.059891,572.687500 
	C232.129395,568.253540 233.972076,564.004883 235.814789,559.756226 
	C235.814789,559.756226 235.947815,559.879639 236.093018,559.716064 
	C236.470261,558.982178 236.702271,558.411926 236.934280,557.841675 
	C236.934280,557.841675 236.989548,557.965881 237.121002,557.814331 
	C237.496964,557.410767 237.741455,557.158752 237.985962,556.906738 
	C237.985962,556.906738 237.969223,557.013489 238.104431,556.766968 
	C238.463440,555.952637 238.687256,555.384827 238.911072,554.817078 
	C238.911057,554.817078 238.942383,554.952637 239.166748,554.808350 
	C239.915634,553.744263 240.440170,552.824585 240.964722,551.904846 
	C240.964722,551.904846 240.991882,551.986511 241.138382,551.821045 
	C241.524384,551.411255 241.763885,551.166931 242.003387,550.922546 
	C242.003372,550.922546 241.957901,551.039185 242.096603,550.843018 
	C242.484436,550.398804 242.733566,550.150696 242.982697,549.902588 
	C242.982681,549.902588 242.985245,549.992920 243.127243,549.768311 
	C243.493912,549.005920 243.718582,548.468140 243.943253,547.930420 
	C243.943253,547.930420 243.986359,547.982605 244.145050,547.813416 
	C244.537674,547.403870 244.771576,547.163452 245.005493,546.923096 
	C245.005493,546.923096 244.917877,547.053772 245.164566,546.866455 
	C246.259964,545.419128 247.108658,544.159119 247.957367,542.899109 
	C247.957352,542.899109 247.983032,542.981445 248.136353,542.822693 
	C248.529495,542.417664 248.769333,542.171326 249.009155,541.925049 
	C249.009155,541.925049 248.997971,542.024353 249.137299,541.841553 
	C249.517822,541.410400 249.759033,541.161987 250.000244,540.913635 
	C250.000244,540.913635 250.003036,541.000244 250.135681,540.821289 
	C250.506592,540.396301 250.744873,540.150269 250.983139,539.904297 
	C250.983139,539.904297 250.986084,539.986511 251.122223,539.803589 
	C251.497131,539.376465 251.735916,539.132263 251.974701,538.888123 
	C251.974701,538.888123 251.977036,538.977783 252.106140,538.789429 
	C252.478455,538.357788 252.721634,538.114441 252.964813,537.871155 
	C252.964828,537.871155 252.753189,537.975098 253.001678,537.769775 
	C253.741364,536.923950 254.232559,536.283508 254.723740,535.643066 
	C254.723740,535.643066 254.951126,535.733765 255.093231,535.665222 
	C255.483673,535.359314 255.732010,535.121948 255.980347,534.884583 
	C255.980331,534.884583 255.993759,534.973511 256.157471,534.744873 
	C256.533600,534.154419 256.746033,533.792664 256.958435,533.430847 
	C257.041931,533.194519 257.203430,533.039490 257.920532,532.886719 
	C258.930817,532.503296 259.463440,532.198914 259.996033,531.894531 
	C259.996033,531.894531 259.673889,531.950073 259.933563,531.832275 
	C260.736969,531.122131 261.280701,530.529785 261.824463,529.937439 
z"/>
<path fill="#69b900ff" opacity="1.000000" stroke="none" 
	d="
M229.468231,572.999512 
	C227.476547,581.448547 225.189362,590.102234 222.921646,598.760986 
	C221.630295,603.691711 220.370773,608.630737 219.163055,613.309753 
	C229.487488,613.309753 239.255890,613.472778 249.015991,613.258118 
	C256.816864,613.086548 264.602936,612.308289 272.403870,612.059570 
	C287.026520,611.593323 301.660248,611.456055 316.280182,610.927551 
	C340.851410,610.039185 365.414917,608.939026 389.982697,607.952393 
	C406.912994,607.272461 423.845734,606.654236 440.775909,605.971130 
	C465.343628,604.980042 489.910828,603.975281 514.474548,602.892761 
	C515.867432,602.831299 517.227112,602.015686 519.145752,601.311890 
	C520.375916,601.535461 521.062500,601.998169 521.749146,602.460876 
	C521.749146,602.460876 521.668762,602.266846 521.651855,602.493347 
	C521.635010,602.719849 521.938782,602.973633 521.938782,602.973633 
	C521.938782,602.973633 521.906799,603.403564 521.454956,603.675110 
	C518.007996,604.018860 515.002747,603.960266 512.019775,604.189819 
	C505.322876,604.705200 498.637054,605.363586 491.481415,605.990112 
	C473.045837,606.486389 455.075531,606.956421 437.105255,607.426392 
	C432.720886,607.949280 428.344360,608.826355 423.950592,608.923340 
	C413.946655,609.144226 403.926178,608.731018 393.927704,609.052002 
	C385.233032,609.331055 376.559326,610.264099 367.226379,610.559570 
	C359.565338,610.456299 352.551208,610.637695 345.544922,610.980652 
	C343.017731,611.104370 340.509552,611.616211 337.992676,611.950928 
	C323.991760,612.627319 309.990814,613.303772 295.283203,613.613159 
	C276.047852,614.223083 257.519165,615.200012 238.525330,616.112549 
	C231.386307,616.096191 224.712448,616.144165 218.038574,616.192139 
	C217.761703,615.671631 217.141403,615.053345 217.257660,614.644592 
	C221.188736,600.819519 225.189896,587.014343 229.468231,572.999512 
z"/>

<path fill="#69b900ff" opacity="1.000000" stroke="none" 
	d="
M664.918640,791.713135 
	C646.151184,791.932312 627.349915,792.049072 608.548584,792.041687 
	C512.000122,792.003601 415.451691,791.933594 318.451324,791.622681 
	C317.999420,791.370605 318.011993,790.992676 318.278687,790.929504 
	C319.014832,790.599915 319.484314,790.333496 319.953796,790.067078 
	C356.342804,790.370544 392.732086,790.944092 429.120789,790.910034 
	C476.039032,790.866028 522.956543,790.156799 569.875000,790.081299 
	C598.316406,790.035583 626.758728,790.678833 655.201477,790.898926 
	C657.374695,790.915771 659.554810,790.027649 661.948730,789.192993 
	C662.165649,788.825867 662.214233,788.786682 662.411987,788.839111 
	C662.609802,788.891541 662.980896,789.064026 662.980896,789.064026 
	C662.980896,789.064026 663.005676,789.010864 663.074158,789.304443 
	C663.731934,790.141296 664.321228,790.684570 664.910583,791.227844 
	C664.910583,791.227844 664.884766,791.553406 664.918640,791.713135 
z"/>
<path fill="#69b900ff" opacity="1.000000" stroke="none" 
	d="
M452.004883,629.999268 
	C450.736786,630.325195 449.477417,630.893066 448.199219,630.939026 
	C436.904022,631.345825 425.605774,631.669617 414.307892,631.999390 
	C390.715546,632.687805 367.120972,633.305298 343.531006,634.066467 
	C326.095245,634.629028 308.665039,635.365173 291.232910,636.038452 
	C274.465240,636.685974 257.698273,637.351990 240.121140,638.005127 
	C238.219955,637.771362 237.128616,637.542419 236.495148,637.224243 
	C248.730560,636.697815 260.513519,636.370422 272.283783,635.786804 
	C280.818665,635.363586 289.336670,634.600769 297.862213,633.989380 
	C310.458710,633.697571 323.055237,633.407593 335.651642,633.111938 
	C337.479370,633.069092 339.306427,632.999390 342.054108,632.923218 
	C363.412323,632.205322 383.850616,631.516724 404.287140,630.779480 
	C405.390472,630.739624 406.479065,630.291809 407.574524,630.033936 
	C412.757782,630.009521 417.941010,629.985168 424.049072,629.941284 
	C433.985138,629.677917 442.996338,629.434021 452.007202,629.392456 
	C452.006805,629.594727 452.004883,629.999268 452.004883,629.999268 
z"/>


<path fill="#69b900ff" opacity="1.000000" stroke="none" 
	d="
M196.348328,735.087769 
	C196.972778,730.620605 197.620895,726.513428 198.414948,722.021606 
	C198.057144,728.534546 197.803665,735.461609 196.993286,742.322937 
	C195.651825,753.680969 193.951569,764.996582 191.992294,776.666992 
	C191.582062,777.003967 191.161270,777.005615 191.108673,776.583740 
	C191.655075,771.450623 192.254089,766.739502 192.853088,762.028320 
	C192.917007,761.571655 192.980927,761.114929 193.026138,759.902161 
	C193.942337,752.442871 194.877258,745.739746 195.812164,739.036560 
	C195.998764,737.840271 196.185379,736.644043 196.348328,735.087769 
z"/>
<path fill="#69b900ff" opacity="1.000000" stroke="none" 
	d="
M730.984009,423.467102 
	C723.950378,421.380127 716.646484,419.186035 709.485168,416.597534 
	C700.431458,413.325043 691.493774,409.731354 682.279724,406.000061 
	C698.294678,411.544220 714.535889,417.364502 730.984009,423.467102 
z"/>

<path fill="#69b900ff" opacity="1.000000" stroke="none" 
	d="
M771.212402,261.525574 
	C770.732422,261.531647 769.815002,261.196716 769.778870,260.784576 
	C768.611816,247.460159 767.529602,234.128296 766.605713,220.430481 
	C767.883423,231.532578 768.967163,243.004044 770.117126,254.468887 
	C770.341675,256.708649 770.822937,258.922668 771.212402,261.525574 
z"/>
<path fill="#69b900ff" opacity="1.000000" stroke="none" 
	d="
M329.914673,307.184265 
	C329.591553,302.247498 329.332275,297.546753 329.311890,292.425323 
	C329.550720,292.004608 329.982483,292.010986 329.982483,292.010986 
	C333.156403,304.405945 332.211578,316.996063 331.519684,329.533386 
	C331.284760,333.790436 329.980377,337.988403 328.791138,342.593445 
	C328.224335,342.964874 328.031036,342.956268 327.834961,342.527527 
	C328.821747,331.073029 329.811310,320.038635 330.820618,308.749908 
	C330.571594,308.299164 330.302795,308.102722 330.034027,307.906281 
	C330.034027,307.906281 329.978546,307.420349 329.914673,307.184265 
z"/>

<path fill="#69b900ff" opacity="1.000000" stroke="none" 
	d="
M685.887268,382.505493 
	C688.579285,383.049469 691.401550,383.246368 693.940369,384.198730 
	C703.837891,387.911560 713.645569,391.863708 723.715332,396.003418 
	C713.533325,392.567963 703.122559,388.855957 692.050964,384.957489 
	C689.555786,384.015869 687.721558,383.260681 685.887268,382.505493 
z"/>

<path fill="#69b900ff" opacity="1.000000" stroke="none" 
	d="
M628.302734,182.099182 
	C629.863647,181.533737 631.735229,181.131607 633.820068,180.418884 
	C638.642578,180.043304 643.375366,180.609650 647.826782,179.738434 
	C652.414856,178.840424 656.728943,176.542480 661.528748,174.788147 
	C656.996948,180.751175 649.859680,181.136169 643.022156,181.894623 
	C638.264160,182.422409 633.419434,182.167648 628.302734,182.099182 
z"/>

</svg>